<svg xmlns="http://www.w3.org/2000/svg" version="1.1" xmlns:xlink="http://www.w3.org/1999/xlink" xmlns:svgjs="http://svgjs.dev/svgjs" viewBox="0 0 5.904999560243953 4.49079250891325"><g transform="matrix(1,0,0,1,2.9565676133040197,4.249965653396071)"><rect width="5.904999560243953" height="5.904999560243953" x="-2.9565676133040197" y="-4.957069179061422" fill="#cccccc"></rect><g transform="matrix(1,0,0,1,0,0)"><path d=" M -2.1747876792280847 -1.0073512353305951 Q -2.239765651024685 -1.009043329063289 -2.301606680883708 -1.0351620393295977 Q -2.3634477107427316 -1.0612807495959065 -2.413206913145655 -1.109592464285254 Q -2.462966115548578 -1.1579041789746016 -2.491698604976878 -1.2261752859764121 Q -2.5204310944051773 -1.2944463929782226 -2.5182183564470395 -1.3794175868660843 Q -2.5155630708972736 -1.4813830195315187 -2.4710990258966548 -1.5562508944992437 Q -2.4266349808960355 -1.6311187694669689 -2.3556955117595484 -1.666283975546748 L -2.2536102341554214 -1.5145750565719944 Q -2.288936791561668 -1.5024905896072018 -2.3085681417245354 -1.4784935045595784 Q -2.3281994918874034 -1.454496419511955 -2.3364388681928845 -1.4262013196164487 Q -2.3446782444983656 -1.3979062197209426 -2.3453811142027154 -1.3709153698977394 Q -2.346474467076148 -1.32892960350609 -2.33077404129466 -1.2980104083309245 Q -2.3150736155131715 -1.267091213155759 -2.2885903938097765 -1.2468949519124293 Q -2.2621071721063815 -1.2266986906690995 -2.229365661662886 -1.2163428472037672 Q -2.19662415121939 -1.2059870037384348 -2.1636353347688084 -1.205127940766452 Q -2.1266478738999743 -1.20416474894938 -2.092373042020835 -1.2142759259163187 Q -2.0580982101416962 -1.2243871028832574 -2.031060514434058 -1.2446901324803685 Q -2.00402281872642 -1.2649931620774795 -1.9882339197141712 -1.2950923425975702 Q -1.9724450207019226 -1.3251915231176612 -1.9714557966735786 -1.3631786450910583 Q -1.9707529269692288 -1.3901694949142613 -1.9785211444423931 -1.4183812796378414 Q -1.9862893619155573 -1.4465930643614215 -2.004684182042995 -1.4700798817805445 Q -2.023079002170433 -1.4935666991996674 -2.054755770981185 -1.5063956632151352 L -1.9556488444554103 -1.6628687187698048 Q -1.9042131434548466 -1.640522160587825 -1.868501260938351 -1.5905755746471621 Q -1.8327893784218554 -1.5406289887064994 -1.8149099839817524 -1.4781423721037803 Q -1.7970305895416494 -1.4156557555010612 -1.7986185544292543 -1.3546764281227133 Q -1.800675099119759 -1.2757032008622298 -1.833869533751826 -1.2110454131684227 Q -1.867063968383893 -1.1463876254746157 -1.920782706408885 -1.1002704140996604 Q -1.9745014444338767 -1.0541532027247051 -2.040656084275836 -1.029867123844395 Q -2.1068107241177954 -1.0055810449640847 -2.1747876792280847 -1.0073512353305951 M -1.7522339838873244 -1.7228527260447914 L -2.42956451105992 -1.935745555797448 L -2.3710939451419373 -2.121772954105414 L -1.6937634179693413 -1.9088801243527578 L -1.7522339838873244 -1.7228527260447914 M -1.846465731467661 -2.3922025607764987 L -1.5585198483106142 -2.1950017281897463 L -1.6687036945983411 -2.034115059950136 L -2.2544961789579494 -2.4352972695105777 L -2.16860928339008 -2.560706364753761 L -1.7097247529977637 -2.5918670413610414 L -2.007571354200325 -2.7958484183347307 L -1.8973875079125981 -2.9567350865743416 L -1.31159502355299 -2.5555528770138993 L -1.3991770552175935 -2.4276686022593372 L -1.846465731467661 -2.3922025607764987 M -0.889450586595185 -3.060073949336959 L -0.7934768752966062 -2.9197562856606525 L -1.211128274239024 -2.634093356736647 L -1.6119596567213241 -3.2201259520906325 L -1.2017368399735342 -3.5007079198282427 L -1.1057631286749552 -3.3603902561519363 L -1.3550333312058056 -3.1898957807862254 L -1.2985782069125238 -3.1073559786236924 L -1.0856255173331881 -3.253010199300359 L -0.996426420949803 -3.1225973118835566 L -1.2093791105291387 -2.97694309120689 L -1.1461493713206632 -2.8844985127848526 L -0.889450586595185 -3.060073949336959 M -0.8433685457765425 -3.2966177175944695 Q -0.8592560901201691 -3.359646170968555 -0.8507756964865008 -3.4262388351577737 Q -0.8422953028528325 -3.492831499346992 -0.8091864944365699 -3.5537725102120508 Q -0.7760776860203071 -3.61471352107711 -0.7180799860161506 -3.660787014478716 Q -0.6600822860119941 -3.7068605078803225 -0.577660462368959 -3.7276365274066032 Q -0.47875427399731674 -3.7525677508381405 -0.39467145721216834 -3.7299330447107093 Q -0.31058864042701995 -3.7072983385832785 -0.2576012422901732 -3.648465221729866 L -0.37617293232577864 -3.5092612191936587 Q -0.39733345457024094 -3.540022108295595 -0.42573438457322565 -3.5524574279523455 Q -0.45413531457621037 -3.564892747609096 -0.48360404540295865 -3.5651991843246695 Q -0.513072776229707 -3.565505621040243 -0.5392538260927888 -3.55890617954366 Q -0.5799799036575827 -3.5486403816600856 -0.6055218012920407 -3.5251859265346543 Q -0.6310636989264988 -3.501731471409223 -0.6433727934421412 -3.4707841582430534 Q -0.6556818879577836 -3.4398368450768837 -0.6568277547841549 -3.4055157584213562 Q -0.6579736216105262 -3.3711946717658288 -0.6499076375591466 -3.3391956108220624 Q -0.6408639584712361 -3.303317875824506 -0.6218871970128015 -3.2730378077177518 Q -0.6029104355543669 -3.2427577396109974 -0.576070167154953 -3.2221944229464263 Q -0.5492298987555391 -3.2016311062818557 -0.5159886527084003 -3.194541003233691 Q -0.4827474066612617 -3.187450900185527 -0.4459000031502578 -3.19673900303257 Q -0.419718953287176 -3.2033384445291535 -0.39464583686327487 -3.218424492149173 Q -0.36957272043937367 -3.233510539769193 -0.3519143960536035 -3.2575559879847473 Q -0.3342560716678332 -3.281601436200302 -0.33044160979871046 -3.3155639137402138 L -0.15304405904295426 -3.262308782664806 Q -0.16069706235044978 -3.20675312102375 -0.19916714042146544 -3.1588986218286905 Q -0.2376372184924812 -3.111044122633631 -0.29299040302313645 -3.0769813135551765 Q -0.3483435875537918 -3.0429185044767224 -0.40749336687408766 -3.028008655169627 Q -0.484097179436438 -3.008699178198142 -0.555309815479928 -3.0232339801485444 Q -0.626522451523418 -3.037768782098947 -0.6854139532666407 -3.0770662504961352 Q -0.7443054550098632 -3.1163637188933233 -0.7855265925826904 -3.1735219887866823 Q -0.8267477301555177 -3.2306802586800414 -0.8433685457765425 -3.2966177175944695 M 0.26762452130627695 -3.05441240507133 Q 0.1835726090661841 -3.067072422795793 0.12742336023841125 -3.103845536018321 Q 0.07127411141063841 -3.1406186492408485 0.04050166726069873 -3.1948063478544535 Q 0.009729223110759064 -3.248994046468058 0.0013877725834855192 -3.3144667140714255 Q -0.006953677943788011 -3.379939381674793 0.003472219005770022 -3.4491586035195754 L 0.057835824528465474 -3.8100874031387977 L 0.25066079966750204 -3.781043833065029 L 0.19629719414480662 -3.4201150334458066 Q 0.19108424567002757 -3.385505422523415 0.19324004353470786 -3.35281975998513 Q 0.19539584139938815 -3.3201340974468456 0.20650499716985649 -3.293178826013089 Q 0.21761415294032488 -3.266223554579333 0.23869238447723617 -3.2483851646498483 Q 0.2597706160141475 -3.230546774720363 0.2933913809101847 -3.2254827676305777 Q 0.32800099183257586 -3.220269819155799 0.3538929465474811 -3.2310334932980838 Q 0.3797849012623864 -3.2417971674403687 0.3979211739618589 -3.264853091029988 Q 0.4160574466613314 -3.2879090146196077 0.4277454931656076 -3.3185094977679808 Q 0.43943353966988374 -3.3491099809163543 0.4444975467596691 -3.3827307458123914 L 0.4988611522823645 -3.7436595454316137 L 0.6916861274214011 -3.714615975357845 L 0.6373225218987056 -3.3536871757386226 Q 0.6263008594091729 -3.280512569788424 0.5974861132556734 -3.220130781109143 Q 0.5686713671021738 -3.1597489924298614 0.5229571855946695 -3.1180930971796217 Q 0.47724300408716525 -3.0764372019293815 0.4134708727904135 -3.059243736023118 Q 0.34969874149366176 -3.042050270116854 0.26762452130627695 -3.05441240507133 M 0.6939556640999884 -2.9645459712635422 L 1.059901400138641 -3.5729732210437675 L 1.339263771164491 -3.4049474323837665 Q 1.3838246401624794 -3.3781457728429074 1.4107062437308149 -3.337471709982224 Q 1.4375878472991503 -3.29679764712154 1.446712633726749 -3.249882955684308 Q 1.4558374201543476 -3.2029682642470756 1.4481555391479437 -3.156243124287912 Q 1.4404736581415398 -3.109517984328748 1.417279914308104 -3.0709556938497196 Q 1.396147836593196 -3.0358211625243827 1.3662787310061093 -3.009442448919897 Q 1.3364096254190228 -2.9830637353154117 1.3004643896018921 -2.9679247121616257 Q 1.2645191537847615 -2.9527856890078397 1.2252425003736964 -2.949569402822335 L 1.219259754403197 -2.6485956385991845 L 1.0358746396807066 -2.758894775940412 L 1.0411179695876054 -3.0101347160205822 L 0.9734197263022 -3.0508526218615026 L 0.8610589228424447 -2.864039747985321 L 0.6939556640999884 -2.9645459712635422 M 1.0610405363396238 -3.196532385893388 L 1.1664441303156348 -3.1331361527486634 Q 1.176727407776709 -3.1269511543930806 1.1907924942160475 -3.1289940306629354 Q 1.204857580655386 -3.13103690693279 1.2200467100722998 -3.141739259363739 Q 1.2352358394892136 -3.1524416117946883 1.2476058362003792 -3.173008166716837 Q 1.260491249441177 -3.194431661427408 1.261711633978509 -3.2129522084382565 Q 1.2629320185158412 -3.2314727554491047 1.256859019927243 -3.245627920165309 Q 1.2507860213386444 -3.2597830848815135 1.24050274387757 -3.2659680832370963 L 1.1393838488436734 -3.3267872337336613 L 1.0610405363396238 -3.196532385893388 M 1.914662692768685 -2.9085155640997047 L 2.051118007123023 -2.7385039551300263 L 1.638873322148752 -2.1178347036679743 L 1.5149368439737108 -2.2722489173193336 L 1.59642324365054 -2.3927892286998342 L 1.4781202417561825 -2.54018461445795 L 1.343428788317341 -2.4859332331803055 L 1.2188663683333352 -2.6411273165975806 L 1.914662692768685 -2.9085155640997047 M 1.6784021171417036 -2.49833762660866 L 1.8339352246559066 -2.7039548741025783 L 1.5976556237852375 -2.598940826411818 L 1.6784021171417036 -2.49833762660866 M 2.3137519560067874 -1.7661891097291433 L 2.246204790538823 -1.9586816561750862 L 1.7366656970054448 -1.7798803358187099 L 1.67209855354342 -1.9638805640390964 L 2.181637647076798 -2.1426818843954725 L 2.113759368052618 -2.3361180217553663 L 2.2741698234242373 -2.392407326312003 L 2.474162411378406 -1.8224784142857804 L 2.3137519560067874 -1.7661891097291433 M 1.9761046757073648 -1.005836510438438 L 1.8061046757237071 -1.0058341532322115 L 1.8060976595687037 -1.5118341531835686 L 2.51609765950045 -1.511843997986044 L 2.516104550862183 -1.0148439980338217 L 2.3461045508785254 -1.014841640827595 L 2.3461003633709936 -1.3168416407985633 L 2.2461003633806067 -1.3168402542066653 L 2.2461039407877035 -1.0588402542314674 L 2.0881039408028923 -1.0588380634162686 L 2.0881003633957955 -1.3168380633914665 L 1.9761003634065621 -1.3168365104085409 L 1.9761046757073648 -1.005836510438438" fill="#173054" fill-rule="nonzero"></path></g><g transform="matrix(1,0,0,1,0,0)"><g clip-path="url(#SvgjsClipPath1017)"><g clip-path="url(#SvgjsClipPath10142b5f7156-b73e-4e65-be7e-98f6a58fe9ec)"><path d=" M 1.3275367741294193 -2.3457651593893476 L 1.3275367741294193 -2.1889418887783076 C 1.3275367795158999 -2.173693749803311 1.3214761740993917 -2.1590708401623937 1.3106895804126044 -2.148293310849138 C 1.2999029867258176 -2.137515781535883 1.2852749871616107 -2.131467471595857 1.270026853603759 -2.131480295941186 L 1.1132519106812369 -2.131480295941186 C 1.0980037771233804 -2.131467471602265 1.0833757775617234 -2.1375157815484602 1.0725891838794819 -2.1482933108662636 C 1.061802590197239 -2.1590708401840666 1.0557419847868974 -2.173693749827541 1.055741990179808 -2.1889418887783068 L 1.055741990179808 -2.3457651593893476 C 1.0560474736010594 -2.3510075520735034 1.057088658599335 -2.3561809400336826 1.0588349606941707 -2.361133356632587 L 0.8987254089116201 -2.361133356632587 L 0.8987254089116201 -2.19971895791429 C 0.8987254089116201 -2.1565623537060743 0.8498178126532616 -2.1210415204551913 0.7889732833160352 -2.1210415204551913 L -0.7889732833160354 -2.1210415204551913 C -0.8498178126532617 -2.1210415204551913 -0.89872540891162 -2.1565623537060743 -0.89872540891162 -2.19971895791429 L -0.89872540891162 -2.361133356632587 L -1.0588349606941703 -2.361133356632587 C -1.0570886585993344 -2.3561809400336835 -1.0560474736010592 -2.3510075520735034 -1.0557419901798077 -2.3457651593893485 L -1.0557419901798077 -2.1889418887783076 C -1.055741984793327 -2.173693749803311 -1.061802590209835 -2.1590708401623937 -1.072589183896622 -2.148293310849138 C -1.083375777583409 -2.137515781535883 -1.098003777147616 -2.131467471595857 -1.1132519107054675 -2.131480295941186 L -1.27002685362799 -2.131480295941186 C -1.2852749871858467 -2.131467471602265 -1.2999029867475032 -2.1375157815484602 -1.3106895804297456 -2.1482933108662636 C -1.3214761741119878 -2.1590708401840666 -1.3275367795223296 -2.173693749827541 -1.3275367741294193 -2.1889418887783068 L -1.3275367741294193 -2.3457651593893476 C -1.3272387253102702 -2.3510128923808082 -1.3261805963538134 -2.356189584813936 -1.3243954759507695 -2.361133356632588 L -1.4425082874679906 -2.361133356632588 L -1.4425082874679906 -0.18749999999999867 L -1.3243954759507697 -0.18749999999999867 C -1.3261760132646296 -0.19246173494294094 -1.3272339354465823 -0.19765369149744716 -1.3275367741294193 -0.20291652490752465 L -1.3275367741294193 -0.35969146785427686 C -1.3275367741294193 -0.39145331991119825 -1.3017887056849107 -0.41720138835570664 -1.2700268536279902 -0.41720138835570664 L -1.1132519106812369 -0.41720138835570664 C -1.0814900586243164 -0.41720138835570664 -1.0557419901798077 -0.39145331991119825 -1.0557419901798077 -0.35969146785427686 L -1.0557419901798077 -0.20291652490752465 C -1.056052454938356 -0.19765903640297688 -1.0570934393023483 -0.1924703799637033 -1.0588349606941703 -0.18750000000000044 L -0.89872540891162 -0.18750000000000044 L -0.89872540891162 -0.34891439871829544 C -0.89872540891162 -0.39211933059079795 -0.8498178126532617 -0.4276401638416807 -0.7889732833160354 -0.4276401638416807 L 0.7889732833160352 -0.4276401638416807 C 0.8498178126532616 -0.4276401638416807 0.8987254089116201 -0.39211933059079684 0.8987254089116201 -0.34891439871829544 L 0.8987254089116201 -0.18749999999999867 L 1.0588832883584571 -0.18749999999999867 C 1.057141766966635 -0.1924703799637033 1.0561007826026427 -0.19765903640297688 1.0557903178440948 -0.20291652490752554 L 1.0557903178440948 -0.35969146785427686 C 1.0557903178440948 -0.39145331991119825 1.0815383862886023 -0.41720138835570664 1.1133002383455233 -0.41720138835570664 L 1.2700751812922768 -0.41720138835570664 C 1.3018370333491978 -0.41720138835570664 1.3275851017937061 -0.39145331991119825 1.3275851017937061 -0.35969146785427686 L 1.3275851017937061 -0.20291652490752465 C 1.3272746370351578 -0.19765903640297688 1.326233652671165 -0.1924703799637033 1.3244921312793434 -0.18750000000000044 L 1.4425566151322775 -0.18750000000000044 L 1.4425566151322775 -2.361133356632588 L 1.3246854419364913 -2.361133356632588 C 1.3263494945931542 -2.3561690682826715 1.3273092815383605 -2.3509959793237636 1.3275367741294193 -2.3457651593893476 Z M -1.0557419901798077 -0.6941672323840193 C -1.055741984793327 -0.6789190934090237 -1.061802590209835 -0.6642961837681052 -1.0725891838966217 -0.6535186544548499 C -1.0833757775834085 -0.6427411251415958 -1.0980037771476154 -0.6366928152015683 -1.1132519107054666 -0.6367056395468977 L -1.27002685362799 -0.6367056395468977 C -1.2852749871858467 -0.6366928152079774 -1.2999029867475032 -0.642741125154173 -1.3106895804297456 -0.653518654471976 C -1.3214761741119878 -0.6642961837897801 -1.3275367795223296 -0.6789190934332527 -1.3275367741294193 -0.6941672323840193 L -1.3275367741294193 -0.8509905029950591 C -1.3275367795158999 -0.8662386419700547 -1.321476174099392 -0.8808615516109732 -1.3106895804126053 -0.8916390809242274 C -1.2999029867258185 -0.9024166102374827 -1.2852749871616114 -0.908464920177509 -1.2700268536037602 -0.9084520958321807 L -1.1132519106812369 -0.9084520958321807 C -1.0980037771233804 -0.9084649201710999 -1.0833757775617237 -0.9024166102249045 -1.0725891838794814 -0.8916390809071024 C -1.0618025901972392 -0.8808615515892984 -1.0557419847868974 -0.8662386419458257 -1.0557419901798077 -0.8509905029950591 Z M -1.0557419901798077 -1.1959050430107738 C -1.055741984793327 -1.180656904035777 -1.061802590209835 -1.1660339943948588 -1.0725891838966217 -1.1552564650816044 C -1.0833757775834085 -1.1444789357683491 -1.0980037771476154 -1.1384306258283228 -1.1132519107054666 -1.1384434501736522 L -1.27002685362799 -1.1384434501736522 C -1.2853001414246397 -1.1384305560488315 -1.2999501697688463 -1.1444987570309573 -1.3107409473023863 -1.1553076703250582 C -1.3215317248359264 -1.1661165836191594 -1.3275753160564074 -1.180776781394266 -1.3275367741294193 -1.196050026003635 L -1.3275367741294193 -1.352873296614675 C -1.3275367795159 -1.3681214355896705 -1.321476174099392 -1.382744345230589 -1.310689580412605 -1.3935218745438442 C -1.299902986725818 -1.4042994038570984 -1.285274987161611 -1.4103477137971259 -1.2700268536037596 -1.4103348894517955 L -1.1132519106812369 -1.4103348894517955 C -1.0980037771233804 -1.4103477137907168 -1.0833757775617237 -1.4042994038445222 -1.0725891838794814 -1.3935218745267193 C -1.0618025901972392 -1.382744345208915 -1.0557419847868974 -1.3681214355654414 -1.0557419901798077 -1.352873296614675 Z M -1.0557419901798077 -1.697691181301814 C -1.0557419901798077 -1.6659293292448936 -1.0814900586243161 -1.6401812608003854 -1.1132519106812366 -1.6401812608003854 L -1.27002685362799 -1.6401812608003854 C -1.3017887056849107 -1.6401812608003854 -1.327536774129419 -1.6659293292448936 -1.3275367741294193 -1.697691181301814 L -1.3275367741294193 -1.8544661242485674 C -1.3275367741294193 -1.8862279763054877 -1.3017887056849107 -1.9119760447499972 -1.2700268536279902 -1.9119760447499972 L -1.1132519106812369 -1.9119760447499972 C -1.0814900586243164 -1.9119760447499972 -1.0557419901798077 -1.8862279763054877 -1.0557419901798077 -1.8544661242485674 Z M 0.8060329488093163 -1.9338201490076818 C 0.8306806041796626 -1.9338201490076818 0.8543187557554786 -1.924028906035548 0.8717472800081996 -1.9066003817828274 C 0.889175804260921 -1.8891718575301066 0.8989670472330549 -1.8655337059542911 0.8989670472330549 -1.840886050583944 L 0.8989670472330549 -1.29715149969186 L 0.6177000410832074 -1.29715149969186 C 0.6157666744446073 -1.44466668776524 0.5572173590286407 -1.5857975287368897 0.4541592251362925 -1.6913602572802215 L 0.6966191168637403 -1.9338201490076818 Z M 0.04883510476192776 -1.5198453767259665 L 0.04883510476192776 -1.7580524339961718 C 0.16770136547774483 -1.7561524791719996 0.2813713693693216 -1.7090045742584787 0.36668615277696937 -1.626214565821467 L 0.18304102848669146 -1.4425694415311892 Z M 0.03317694153296724 -1.5288826499476196 L -0.11180605132777877 -1.6126828198211303 L -0.11180605132777877 -1.297344810349008 L -0.4275306821141962 -1.297344810349008 C -0.4230675943674358 -1.5499148360727466 -0.2193930841907763 -1.7535893462494077 0.033176941532964355 -1.7580524339961718 Z M -0.11180605132777877 -1.2816866471200483 L -0.11180605132777877 -0.9578912963977155 L 0.03317694153296724 -1.0416431386069405 L 0.03317694153296724 -0.8210273511371711 C -0.21939308419077408 -0.8254904388839344 -0.4230675943674347 -1.0291649490605943 -0.4275306821141962 -1.281734974784336 Z M 0.048931760090501486 -1.0506804118285935 L 0.44908482038615993 -1.2816866471200483 L 0.5096877114019516 -1.2816866471200483 C 0.5051989009300226 -1.0291088070378023 0.30151006962925275 -0.8254413402043399 0.048931760090501486 -0.8209790234728853 Z M 0.4342965551143638 -1.297151499691861 L 0.1970077234656098 -1.4341604279452658 L 0.377849843227247 -1.6149542200426155 C 0.46066583103371417 -1.52967609679287 0.5078192639586951 -1.4160100502698958 0.5096877114019516 -1.297151499691861 Z M 0.04883510476192776 -1.7891754497969452 L 0.04883510476192776 -1.834651781890933 C 0.1880649283458553 -1.8327447369836913 0.321257384249233 -1.7774958143661088 0.42095811977117514 -1.6802932221585252 L 0.3888685506846634 -1.6481553254077264 C 0.29767777092994896 -1.7368393117430077 0.17602417818578653 -1.7872920098139944 0.04883510476192798 -1.7891754497969452 Z M 0.03317694153296724 -1.7891754497969452 C -0.23658109276507466 -1.7845490648468287 -0.45411149949928786 -1.566911774068426 -0.4586053702506827 -1.297151499691861 L -0.5039850470160961 -1.297151499691861 C -0.4993762269542754 -1.5920370757842892 -0.2614661626194448 -1.8299899296990376 0.03341857985440155 -1.834651781890933 Z M -0.4586053702506827 -1.2814933364629002 C -0.45410776009007414 -1.0116409375384892 -0.2364338190700268 -0.7939669965184337 0.033418579854393116 -0.7894693863578159 L 0.033418579854393116 -0.7439930542638284 C -0.26146616261944433 -0.7486549064557257 -0.4993762269542754 -0.9866077603704722 -0.5039850470160959 -1.2814933364629013 Z M 0.04883510476192776 -0.7894693863578159 C 0.31872524706057015 -0.7939154622036628 0.5364566212475907 -1.0116040726915405 0.5409557101955857 -1.2814933364629002 L 0.5863353869609991 -1.2814933364629002 C 0.5817251689121077 -0.9865708489942697 0.3437575922305658 -0.7486032723127243 0.048835104761931314 -0.7439930542638284 Z M 0.5409557101955857 -1.2969098613704264 C 0.5390567847250232 -1.424090868172411 0.48858588365369937 -1.5457293707543776 0.3998872581420789 -1.636894979628877 L 0.43197682722859176 -1.668984548715387 C 0.529208812083966 -1.5693031974449703 0.5844628253663104 -1.4360984691187157 0.5863353869609991 -1.2968615337061398 Z M 0.44309219001458233 -1.7021856540804978 C 0.3375396592434783 -1.8052889437058444 0.1963752187236758 -1.8638450195478407 0.04883510476192754 -1.8657264700274188 L 0.04883510476192754 -1.9333852000291003 L 0.6745333742846198 -1.9333852000291003 Z M -0.8989670472330547 -1.84064441226251 C -0.8989670472330547 -1.8652920676328564 -0.8891758042609209 -1.888930219208672 -0.8717472800081998 -1.9063587434613927 C -0.8543187557554788 -1.9237872677141143 -0.830680604179663 -1.9335785106862482 -0.8060329488093165 -1.9335785106862482 L 0.03317694153296724 -1.9335785106862482 L 0.03317694153296724 -1.8659197806845667 C -0.2790628737248775 -1.8613771082737658 -0.5310751966387829 -1.609343372128242 -0.5355913394597386 -1.2971031720275732 L -0.8989670472330545 -1.2971031720275732 Z M -0.8060329488093166 -0.6445830488256437 C -0.8306806041796632 -0.6445830488256437 -0.8543187557554788 -0.6543742917977766 -0.8717472800081998 -0.6718028160504983 C -0.8891758042609209 -0.68923134030322 -0.8989670472330547 -0.7128694918790346 -0.8989670472330547 -0.7375171472493818 L -0.8989670472330547 -1.2814933364629002 L -0.5355913394597387 -1.2814933364629002 C -0.5310234371939221 -0.9692908809616669 -0.27902590098766833 -0.7173147567306228 0.03317694153297168 -0.7127733831344802 L 0.03317694153297168 -0.6451146531327987 Z M 0.8989670472330544 -0.7375171472493818 C 0.8989670472330544 -0.7128694918790346 0.8891758042609206 -0.6892313403032189 0.8717472800081991 -0.6718028160504983 C 0.8543187557554781 -0.6543742917977766 0.8306806041796622 -0.6445830488256437 0.8060329488093154 -0.6445830488256437 L 0.04883510476192776 -0.6445830488256437 L 0.04883510476192776 -0.7122417788273254 C 0.36109132282127154 -0.7167831737447572 0.6131321174690683 -0.9688025563804354 0.6177000410832074 -1.2810583874843178 L 0.8989670472330549 -1.2810583874843178 Z M 1.3275367741294193 -0.694022249391157 C 1.3275367795158999 -0.6787741104161604 1.3214761740993917 -0.6641512007752419 1.3106895804126049 -0.6533736714619878 C 1.299902986725818 -0.6425961421487325 1.2852749871616111 -0.6365478322087061 1.2700268536037604 -0.6365606565540345 L 1.1132519106812369 -0.6365606565540345 C 1.0980037771233804 -0.6365478322151141 1.0833757775617234 -0.6425961421613107 1.0725891838794819 -0.6533736714791127 C 1.061802590197239 -0.6641512007969168 1.0557419847868974 -0.6787741104403895 1.055741990179808 -0.6940222493911561 L 1.055741990179808 -0.8509905029950591 C 1.055741984793327 -0.8662386419700547 1.0618025902098347 -0.8808615516109732 1.072589183896622 -0.8916390809242274 C 1.0833757775834088 -0.9024166102374827 1.0980037771476157 -0.908464920177509 1.1132519107054664 -0.9084520958321807 L 1.27002685362799 -0.9084520958321807 C 1.2852749871858464 -0.9084649201710999 1.2999029867475034 -0.9024166102249045 1.3106895804297454 -0.8916390809071024 C 1.3214761741119878 -0.8808615515892984 1.3275367795223294 -0.8662386419458257 1.3275367741294193 -0.8509905029950591 Z M 1.3275367741294193 -1.1957600600179117 C 1.3275367795158999 -1.180511921042916 1.3214761740993917 -1.1658890114019975 1.3106895804126049 -1.1551114820887434 C 1.299902986725818 -1.1443339527754879 1.2852749871616111 -1.1382856428354606 1.2700268536037604 -1.138298467180791 L 1.1132519106812369 -1.138298467180791 C 1.0980037771233804 -1.1382856428418697 1.0833757775617234 -1.1443339527880654 1.0725891838794819 -1.1551114821058683 C 1.061802590197239 -1.1658890114236715 1.0557419847868974 -1.180511921067146 1.055741990179808 -1.1957600600179117 L 1.055741990179808 -1.3525833306289525 C 1.055741984793327 -1.3678314696039482 1.0618025902098347 -1.3824543792448667 1.072589183896622 -1.3932319085581217 C 1.0833757775834088 -1.4040094378713772 1.0980037771476157 -1.4100577478114036 1.1132519107054664 -1.4100449234660741 L 1.27002685362799 -1.4100449234660741 C 1.2852749871858464 -1.4100577478049945 1.2999029867475034 -1.4040094378587988 1.3106895804297454 -1.3932319085409959 C 1.3214761741119878 -1.3824543792231927 1.3275367795223294 -1.367831469579718 1.3275367741294193 -1.3525833306289525 Z M 1.3275367741294193 -1.6975461983089528 C 1.3275367741294193 -1.6657843462520323 1.301788705684911 -1.640036277807524 1.2700268536279904 -1.640036277807524 L 1.1132519106812369 -1.640036277807524 C 1.081490058624316 -1.640036277807524 1.055741990179808 -1.6657843462520323 1.055741990179808 -1.6975461983089528 L 1.055741990179808 -1.854321141255706 C 1.055741990179808 -1.8860829933126264 1.081490058624316 -1.9118310617571348 1.1132519106812364 -1.9118310617571348 L 1.27002685362799 -1.9118310617571348 C 1.301788705684911 -1.9118310617571348 1.3275367741294193 -1.8860829933126264 1.3275367741294193 -1.854321141255706 Z" fill="#225777" transform="matrix(1,0,0,1,0,0)" fill-rule="nonzero"></path></g></g></g></g><defs><clipPath id="SvgjsClipPath1017"><path d=" M -1.4425082874679906 -2.361133356632588 h 2.8850165749359813 v 2.173633356632588 h -2.8850165749359813 Z"></path></clipPath><clipPath id="SvgjsClipPath10142b5f7156-b73e-4e65-be7e-98f6a58fe9ec"><path d=" M -1.4425082874679906 -2.361133356632588 L 1.4425082874679906 -2.361133356632588 L 1.4425082874679906 -0.1875 L -1.4425082874679906 -0.1875 Z"></path></clipPath></defs></svg>